<mxfile host="Electron" agent="Mozilla/5.0 (Windows NT 10.0; Win64; x64) AppleWebKit/537.36 (KHTML, like Gecko) draw.io/28.0.6 Chrome/138.0.7204.100 Electron/37.2.3 Safari/537.36" version="28.0.6">
  <diagram name="Page-1" id="55a83fd1-7818-8e21-69c5-c3457e3827bb">
    <mxGraphModel dx="1138" dy="819" grid="1" gridSize="10" guides="1" tooltips="1" connect="1" arrows="1" fold="1" page="1" pageScale="1" pageWidth="1100" pageHeight="850" background="none" math="0" shadow="0">
      <root>
        <mxCell id="0" />
        <mxCell id="1" parent="0" />
        <mxCell id="DddvYVDO0xp9PcGFsrXd-2" value="Tầng ứng dụng" style="rounded=1;whiteSpace=wrap;html=1;fontSize=20;arcSize=30;fontFamily=Noto Sans;fontSource=https%3A%2F%2Ffonts.googleapis.com%2Fcss%3Ffamily%3DNoto%2BSans;fontColor=#FFFFFF;fillColor=#0099CC;strokeColor=none;imageHeight=24;" parent="1" vertex="1">
          <mxGeometry x="120" y="480" width="160" height="90" as="geometry" />
        </mxCell>
        <mxCell id="DddvYVDO0xp9PcGFsrXd-3" value="Tầng giao vận" style="rounded=1;whiteSpace=wrap;html=1;fontSize=20;arcSize=30;fontFamily=Noto Sans;fontSource=https%3A%2F%2Ffonts.googleapis.com%2Fcss%3Ffamily%3DNoto%2BSans;fontColor=#FFFFFF;strokeColor=none;fillColor=#00CC00;imageHeight=24;" parent="1" vertex="1">
          <mxGeometry x="120" y="590" width="160" height="60" as="geometry" />
        </mxCell>
        <mxCell id="DddvYVDO0xp9PcGFsrXd-4" value="Tầng Internet" style="rounded=1;whiteSpace=wrap;html=1;fontSize=20;arcSize=30;fontFamily=Noto Sans;fontSource=https%3A%2F%2Ffonts.googleapis.com%2Fcss%3Ffamily%3DNoto%2BSans;strokeColor=none;fillColor=#FFCC3B;fontColor=#FFFFFF;imageHeight=24;" parent="1" vertex="1">
          <mxGeometry x="120" y="670" width="160" height="50" as="geometry" />
        </mxCell>
        <mxCell id="DddvYVDO0xp9PcGFsrXd-5" value="Tầng truy cập" style="rounded=1;whiteSpace=wrap;html=1;fontSize=20;arcSize=30;fontFamily=Noto Sans;fontSource=https%3A%2F%2Ffonts.googleapis.com%2Fcss%3Ffamily%3DNoto%2BSans;fontColor=#FFFFFF;strokeColor=none;fillColor=#EA6B66;imageHeight=24;" parent="1" vertex="1">
          <mxGeometry x="120" y="740" width="160" height="60" as="geometry" />
        </mxCell>
        <mxCell id="DddvYVDO0xp9PcGFsrXd-6" value="HTTP" style="rounded=1;whiteSpace=wrap;html=1;fontSize=20;arcSize=30;fontFamily=Noto Sans;fontSource=https%3A%2F%2Ffonts.googleapis.com%2Fcss%3Ffamily%3DNoto%2BSans;fontColor=#FFFFFF;fillColor=#0099CC;strokeColor=none;imageHeight=24;" parent="1" vertex="1">
          <mxGeometry x="320" y="480" width="110" height="40" as="geometry" />
        </mxCell>
        <mxCell id="DddvYVDO0xp9PcGFsrXd-7" value="RDP" style="rounded=1;whiteSpace=wrap;html=1;fontSize=20;arcSize=30;fontFamily=Noto Sans;fontSource=https%3A%2F%2Ffonts.googleapis.com%2Fcss%3Ffamily%3DNoto%2BSans;fontColor=#FFFFFF;fillColor=#0099CC;strokeColor=none;imageHeight=24;" parent="1" vertex="1">
          <mxGeometry x="440" y="480" width="110" height="40" as="geometry" />
        </mxCell>
        <mxCell id="DddvYVDO0xp9PcGFsrXd-8" value="DNS" style="rounded=1;whiteSpace=wrap;html=1;fontSize=20;arcSize=30;fontFamily=Noto Sans;fontSource=https%3A%2F%2Ffonts.googleapis.com%2Fcss%3Ffamily%3DNoto%2BSans;fontColor=#FFFFFF;fillColor=#0099CC;strokeColor=none;imageHeight=24;" parent="1" vertex="1">
          <mxGeometry x="560" y="480" width="130" height="40" as="geometry" />
        </mxCell>
        <mxCell id="DddvYVDO0xp9PcGFsrXd-9" value="SMTP" style="rounded=1;whiteSpace=wrap;html=1;fontSize=20;arcSize=30;fontFamily=Noto Sans;fontSource=https%3A%2F%2Ffonts.googleapis.com%2Fcss%3Ffamily%3DNoto%2BSans;fontColor=#FFFFFF;fillColor=#0099CC;strokeColor=none;imageHeight=24;" parent="1" vertex="1">
          <mxGeometry x="320" y="530" width="110" height="40" as="geometry" />
        </mxCell>
        <mxCell id="DddvYVDO0xp9PcGFsrXd-10" value="Telnet" style="rounded=1;whiteSpace=wrap;html=1;fontSize=20;arcSize=30;fontFamily=Noto Sans;fontSource=https%3A%2F%2Ffonts.googleapis.com%2Fcss%3Ffamily%3DNoto%2BSans;fontColor=#FFFFFF;fillColor=#0099CC;strokeColor=none;imageHeight=24;" parent="1" vertex="1">
          <mxGeometry x="440" y="530" width="110" height="40" as="geometry" />
        </mxCell>
        <mxCell id="DddvYVDO0xp9PcGFsrXd-11" value="SNMP" style="rounded=1;whiteSpace=wrap;html=1;fontSize=20;arcSize=30;fontFamily=Noto Sans;fontSource=https%3A%2F%2Ffonts.googleapis.com%2Fcss%3Ffamily%3DNoto%2BSans;fontColor=#FFFFFF;fillColor=#0099CC;strokeColor=none;imageHeight=24;" parent="1" vertex="1">
          <mxGeometry x="560" y="530" width="130" height="40" as="geometry" />
        </mxCell>
        <mxCell id="DddvYVDO0xp9PcGFsrXd-12" value="TCP" style="rounded=1;whiteSpace=wrap;html=1;fontSize=20;arcSize=30;fontFamily=Noto Sans;fontSource=https%3A%2F%2Ffonts.googleapis.com%2Fcss%3Ffamily%3DNoto%2BSans;fontColor=#FFFFFF;strokeColor=none;fillColor=#00CC00;imageHeight=24;" parent="1" vertex="1">
          <mxGeometry x="320" y="590" width="170" height="60" as="geometry" />
        </mxCell>
        <mxCell id="DddvYVDO0xp9PcGFsrXd-13" value="UDP" style="rounded=1;whiteSpace=wrap;html=1;fontSize=20;arcSize=30;fontFamily=Noto Sans;fontSource=https%3A%2F%2Ffonts.googleapis.com%2Fcss%3Ffamily%3DNoto%2BSans;fontColor=#FFFFFF;strokeColor=none;fillColor=#00CC00;imageHeight=24;" parent="1" vertex="1">
          <mxGeometry x="510" y="590" width="180" height="60" as="geometry" />
        </mxCell>
        <mxCell id="DddvYVDO0xp9PcGFsrXd-14" value="ICMP" style="rounded=1;whiteSpace=wrap;html=1;fontSize=20;arcSize=30;fontFamily=Noto Sans;fontSource=https%3A%2F%2Ffonts.googleapis.com%2Fcss%3Ffamily%3DNoto%2BSans;strokeColor=none;fillColor=#FFCC3B;fontColor=#FFFFFF;imageHeight=24;" parent="1" vertex="1">
          <mxGeometry x="320" y="670" width="70" height="50" as="geometry" />
        </mxCell>
        <mxCell id="DddvYVDO0xp9PcGFsrXd-15" value="IGMP" style="rounded=1;whiteSpace=wrap;html=1;fontSize=20;arcSize=30;fontFamily=Noto Sans;fontSource=https%3A%2F%2Ffonts.googleapis.com%2Fcss%3Ffamily%3DNoto%2BSans;strokeColor=none;fillColor=#FFCC3B;fontColor=#FFFFFF;imageHeight=24;" parent="1" vertex="1">
          <mxGeometry x="400" y="670" width="70" height="50" as="geometry" />
        </mxCell>
        <mxCell id="DddvYVDO0xp9PcGFsrXd-16" value="ARP" style="rounded=1;whiteSpace=wrap;html=1;fontSize=20;arcSize=30;fontFamily=Noto Sans;fontSource=https%3A%2F%2Ffonts.googleapis.com%2Fcss%3Ffamily%3DNoto%2BSans;strokeColor=none;fillColor=#FFCC3B;fontColor=#FFFFFF;imageHeight=24;" parent="1" vertex="1">
          <mxGeometry x="480" y="670" width="60" height="50" as="geometry" />
        </mxCell>
        <mxCell id="DddvYVDO0xp9PcGFsrXd-17" value="IP" style="rounded=1;whiteSpace=wrap;html=1;fontSize=20;arcSize=30;fontFamily=Noto Sans;fontSource=https%3A%2F%2Ffonts.googleapis.com%2Fcss%3Ffamily%3DNoto%2BSans;strokeColor=none;fillColor=#FFCC3B;fontColor=#FFFFFF;imageHeight=24;" parent="1" vertex="1">
          <mxGeometry x="550" y="670" width="50" height="50" as="geometry" />
        </mxCell>
        <mxCell id="DddvYVDO0xp9PcGFsrXd-18" value="IPSec" style="rounded=1;whiteSpace=wrap;html=1;fontSize=20;arcSize=30;fontFamily=Noto Sans;fontSource=https%3A%2F%2Ffonts.googleapis.com%2Fcss%3Ffamily%3DNoto%2BSans;strokeColor=none;fillColor=#FFCC3B;fontColor=#FFFFFF;imageHeight=24;" parent="1" vertex="1">
          <mxGeometry x="610" y="670" width="80" height="50" as="geometry" />
        </mxCell>
        <mxCell id="DddvYVDO0xp9PcGFsrXd-19" value="Ethernet&lt;br&gt;(IEEE 802.3)" style="rounded=1;whiteSpace=wrap;html=1;fontSize=20;arcSize=30;fontFamily=Noto Sans;fontSource=https%3A%2F%2Ffonts.googleapis.com%2Fcss%3Ffamily%3DNoto%2BSans;fontColor=#FFFFFF;strokeColor=none;fillColor=#EA6B66;imageHeight=24;" parent="1" vertex="1">
          <mxGeometry x="320" y="740" width="120" height="60" as="geometry" />
        </mxCell>
        <mxCell id="DddvYVDO0xp9PcGFsrXd-20" value="Token ring" style="rounded=1;whiteSpace=wrap;html=1;fontSize=20;arcSize=30;fontFamily=Noto Sans;fontSource=https%3A%2F%2Ffonts.googleapis.com%2Fcss%3Ffamily%3DNoto%2BSans;fontColor=#FFFFFF;strokeColor=none;fillColor=#EA6B66;imageHeight=24;" parent="1" vertex="1">
          <mxGeometry x="450" y="740" width="70" height="60" as="geometry" />
        </mxCell>
        <mxCell id="DddvYVDO0xp9PcGFsrXd-21" value="PPP" style="rounded=1;whiteSpace=wrap;html=1;fontSize=20;arcSize=30;fontFamily=Noto Sans;fontSource=https%3A%2F%2Ffonts.googleapis.com%2Fcss%3Ffamily%3DNoto%2BSans;fontColor=#FFFFFF;strokeColor=none;fillColor=#EA6B66;imageHeight=24;" parent="1" vertex="1">
          <mxGeometry x="530" y="740" width="70" height="60" as="geometry" />
        </mxCell>
        <mxCell id="DddvYVDO0xp9PcGFsrXd-22" value="Frame Relay" style="rounded=1;whiteSpace=wrap;html=1;fontSize=20;arcSize=30;fontFamily=Noto Sans;fontSource=https%3A%2F%2Ffonts.googleapis.com%2Fcss%3Ffamily%3DNoto%2BSans;fontColor=#FFFFFF;strokeColor=none;fillColor=#EA6B66;imageHeight=24;" parent="1" vertex="1">
          <mxGeometry x="610" y="740" width="80" height="60" as="geometry" />
        </mxCell>
        <mxCell id="DddvYVDO0xp9PcGFsrXd-23" value="&lt;font style=&quot;font-size: 20px;&quot; data-font-src=&quot;https://fonts.googleapis.com/css?family=Noto+Sans&quot;&gt;Các tầng&lt;/font&gt;" style="text;html=1;align=center;verticalAlign=middle;whiteSpace=wrap;rounded=0;fontSize=20;fontFamily=Noto Sans;fontSource=https%3A%2F%2Ffonts.googleapis.com%2Fcss%3Ffamily%3DNoto%2BSans;" parent="1" vertex="1">
          <mxGeometry x="120" y="440" width="160" height="30" as="geometry" />
        </mxCell>
        <mxCell id="DddvYVDO0xp9PcGFsrXd-24" value="Một số giao thức trong mỗi tầng" style="text;html=1;align=center;verticalAlign=middle;whiteSpace=wrap;rounded=0;fontSize=20;fontFamily=Noto Sans;fontSource=https%3A%2F%2Ffonts.googleapis.com%2Fcss%3Ffamily%3DNoto%2BSans;" parent="1" vertex="1">
          <mxGeometry x="320" y="440" width="370" height="30" as="geometry" />
        </mxCell>
      </root>
    </mxGraphModel>
  </diagram>
</mxfile>
